<svg width="512" height="512" viewBox="0 0 512 512" fill="none" xmlns="http://www.w3.org/2000/svg">
<path d="M439.816 227.173C445.503 246.517 447.531 266.924 445.74 286.99C442.23 325.26 425.041 360.271 398.816 384.99C372.23 410.071 336.012 424.07 297.816 424.99H211.816C173.619 424.07 137.402 410.071 110.816 384.99C84.5913 360.271 67.4023 325.26 63.8916 286.99C62.0999 266.924 64.1284 246.517 69.8156 227.173C74.6329 210.51 84.1493 195.429 97.3156 183.49C112.592 169.601 131.579 159.429 152.316 153.99L155.816 152.99C179.816 146.49 199.316 128.99 211.816 106.99C217.387 97.2307 224.588 88.5867 233.092 81.3916C252.316 65.4916 277.816 63.4916 299.816 73.4916C317.816 82.4916 329.816 98.4916 335.816 116.99C345.816 145.49 371.316 161.49 399.816 152.99L407.316 150.99C421.816 160.99 433.816 177.49 439.816 195.99V227.173Z" fill="#00357C"/>
<path d="M400 153C371.5 161.5 346 145.5 336 117C330 98.5 318 82.5 300 73.5C278 63.5 252.5 65.5 233.5 81.5C225.013 88.6859 217.813 97.33 212 107C199.5 129 180 146.5 156 153L152.5 154C131.763 159.438 112.776 169.61 97.5 183.5C84.3337 195.438 74.8173 210.518 70 227.172C64.3128 246.516 62.2843 266.923 64.0759 286.989C67.5866 325.259 84.7756 360.27 111 384.989C137.586 410.07 173.803 424.069 212 424.989H298C336.196 424.069 372.414 410.07 399 384.989C425.224 360.27 442.413 325.259 445.924 286.989C447.716 266.923 445.687 246.516 440 227.172V196C434 177.5 422 161 407.5 151L400 153Z" fill="url(#paint0_linear_1_2)"/>
<path d="M409 284C409 349.019 359.019 400 294 400C228.981 400 179 349.019 179 284C179 218.981 228.981 169 294 169C359.019 169 409 218.981 409 284Z" fill="#0052A3"/>
<path d="M294 382C239.817 382 197 339.183 197 285C197 230.817 239.817 188 294 188C348.183 188 391 230.817 391 285C391 339.183 348.183 382 294 382Z" fill="url(#paint1_linear_1_2)"/>
<path d="M375 285C375 330.392 338.392 367 293 367C247.608 367 211 330.392 211 285C211 239.608 247.608 203 293 203C338.392 203 375 239.608 375 285Z" fill="url(#paint2_linear_1_2)"/>
<path d="M392.5 151C392.5 151 385 156.5 381.5 167C378 177.5 378.5 186 378.5 186L384.5 186.5C384.5 186.5 385.5 175.5 390 165.5C394.5 155.5 392.5 151 392.5 151Z" fill="#69E5F3"/>
<path d="M120.218 165.589C120.218 165.589 126.855 160.035 131.026 151.026C135.196 142.016 135.089 135.196 135.089 135.196L128.879 134.782C128.879 134.782 127.892 144.173 123.615 153.289C119.338 162.405 120.218 165.589 120.218 165.589Z" fill="#69E5F3"/>
<path d="M256 102C256 102 248.5 125 264.5 137.5C280.5 150 299 144 299 144C299 144 295 127.5 282 118C269 108.5 256 102 256 102Z" fill="#69E5F3"/>
<path d="M367 122C367 122 355.571 135.286 343.5 142C331.429 148.714 321.5 149 321.5 149L323.5 142.5C323.5 142.5 332.571 143.286 343 137.5C353.429 131.714 367 122 367 122Z" fill="#69E5F3"/>
<p d="M148.5 401.5C161.667 400.167 172.1 393.1 173.5 384C174.9 374.9 167.5 369.5 162 369C156.5 368.5 148.833 371.167 143 376C137.167 380.833 133.5 389.9 135.5 396.5C137.5 403.1 141.5 402.25 148.5 401.5Z" fill="#0052A3"/>
<p d="M164 371.5C167.1 371.5 169.5 376.1 169.5 382C169.5 387.9 165.6 395 160.5 397C155.4 399 147.9 398.9 144 394C140.1 389.1 141.6 381.1 146 376.5C150.4 371.9 159.833 371.5 164 371.5Z" fill="#0174C3"/>
<p d="M158.5 379C161.083 379.333 163 381.5 163 384C163 386.5 160.7 391.2 157.5 392.5C154.3 393.8 150.167 393.333 148 391C145.833 388.667 146.2 384.6 149 381.5C151.8 378.4 155.5 378.6 158.5 379Z" fill="#178DDB"/>
<p d="M428 322C432.167 318.5 435.6 308.5 435 301C434.4 293.5 429.5 287.667 424.5 285C419.5 282.333 411.6 283.5 406 288C400.4 292.5 396.833 300.167 398 307C399.167 313.833 404.2 318.1 410 320.5C415.8 322.9 423.833 325.5 428 322Z" fill="#0052A3"/>
<p d="M427 316C429.4 314.4 432 308.4 431.5 303C431 297.6 427.2 291.5 423 290C418.8 288.5 412.333 290.5 408.5 294.5C404.667 298.5 402.7 304.5 404 309.5C405.3 314.5 410.2 317.5 415.5 318C420.8 318.5 424.6 317.6 427 316Z" fill="#0174C3"/>
<p d="M421.5 311C423.083 310.5 424.9 307.3 424.5 304.5C424.1 301.7 422.033 298.5 419.5 297.5C416.967 296.5 413.9 297.5 411.5 299.5C409.1 301.5 408.367 304.333 409.5 306.5C410.633 308.667 414.2 310 417 310.5C419.8 311 419.583 311.5 421.5 311Z" fill="#178DDB"/>
<p d="M439 231C439 231 432 235.5 425.5 236C419 236.5 414.5 233 414.5 233V225C414.5 225 422 220 427.5 221C433 222 439 231 439 231Z" fill="#00357C"/>
<p d="M433.5 229C433.5 229 428.5 232.5 424.5 232.5C420.5 232.5 418 230 418 230V226C418 226 422.5 223.5 426 224C429.5 224.5 433.5 229 433.5 229Z" fill="#0174C3"/>
<p d="M68 232C68 232 75.5 235 81.5 235.5C87.5 236 92.5 232.5 92.5 232.5V225C92.5 225 84.5 220.5 79 221.5C73.5 222.5 68 232 68 232Z" fill="#00357C"/>
<p d="M74.5 230C74.5 230 78.5 232.5 82.5 232.5C86.5 232.5 89 230 89 230V226C89 226 85 223.5 81.5 224C78 224.5 74.5 230 74.5 230Z" fill="#0174C3"/>
<path d="M400 382H210.5C189.5 382 178.5 373 178.5 364C178.5 355 189.5 346 210.5 346H400C421 346 432 355 432 364C432 373 421 382 400 382Z" fill="#00357C"/>
<path d="M421.5 364C421.5 368.418 411.851 372 400 372H210.5C198.649 372 189 368.418 189 364C189 359.582 198.649 356 210.5 356H400C411.851 356 421.5 359.582 421.5 364Z" fill="#178DDB"/>
<path d="M381.993 285.492C381.993 325.485 342.384 358.492 292.993 358.492C243.601 358.492 203.993 325.485 203.993 285.492C203.993 245.498 243.601 212.492 292.993 212.492C342.384 212.492 381.993 245.498 381.993 285.492Z" fill="opacity="0.0"/>
<path d="M331.5 202C331.5 202 342.5 207.167 348.5 215.5C354.5 223.833 352 235.5 352 235.5C352 235.5 343 232.5 338 225C333 217.5 331.5 202 331.5 202Z" fill="#D3F8FF"/>
<path d="M225 355C225 355 242.833 349.833 255.5 343.5C268.167 337.167 274.5 328 274.5 328C274.5 328 262.333 332.167 250.5 339C238.667 345.833 225 355 225 355Z" fill="#D3F8FF"/>
<defs>
<linearGradient id="paint0_linear_1_2" x1="255" y1="71" x2="255" y2="425" gradientUnits="userSpaceOnUse">
<stop stop-color="#2DDFFF"/>
<stop offset="0.48" stop-color="#0081C5"/>
<stop offset="1" stop-color="#00357C"/>
</linearGradient>
<linearGradient id="paint1_linear_1_2" x1="294" y1="188" x2="294" y2="382" gradientUnits="userSpaceOnUse">
<stop stop-color="#00A2E2"/>
<stop offset="1" stop-color="#0052A3"/>
</linearGradient>
<linearGradient id="paint2_linear_1_2" x1="293" y1="203" x2="293" y2="367" gradientUnits="userSpaceOnUse">
<stop stop-color="#69E5F3"/>
<stop offset="1" stop-color="#178DDB"/>
</linearGradient>
</defs>
</svg>