<?xml version="1.0" encoding="UTF-8"?>
<svg width="800" height="500" viewBox="0 0 800 500" xmlns="http://www.w3.org/2000/svg">
  <!-- Background -->
  <rect width="800" height="500" fill="#f8f9fa" rx="10" ry="10"/>
  
  <!-- Title -->
  <text x="400" y="50" font-family="Arial, sans-serif" font-size="24" font-weight="bold" fill="#2a3142" text-anchor="middle">Affiliate Marketing Earnings Potential</text>
  
  <!-- Axes -->
  <line x1="100" y1="400" x2="700" y2="400" stroke="#2a3142" stroke-width="2"/> <!-- X-axis -->
  <line x1="100" y1="100" x2="100" y2="400" stroke="#2a3142" stroke-width="2"/> <!-- Y-axis -->
  
  <!-- X-axis labels -->
  <text x="100" y="425" font-family="Arial, sans-serif" font-size="12" fill="#6c757d" text-anchor="middle">0</text>
  <text x="220" y="425" font-family="Arial, sans-serif" font-size="12" fill="#6c757d" text-anchor="middle">5</text>
  <text x="340" y="425" font-family="Arial, sans-serif" font-size="12" fill="#6c757d" text-anchor="middle">10</text>
  <text x="460" y="425" font-family="Arial, sans-serif" font-size="12" fill="#6c757d" text-anchor="middle">15</text>
  <text x="580" y="425" font-family="Arial, sans-serif" font-size="12" fill="#6c757d" text-anchor="middle">20</text>
  <text x="700" y="425" font-family="Arial, sans-serif" font-size="12" fill="#6c757d" text-anchor="middle">25</text>
  <text x="400" y="450" font-family="Arial, sans-serif" font-size="14" fill="#2a3142" text-anchor="middle">Number of Referrals</text>
  
  <!-- Y-axis labels -->
  <text x="80" y="400" font-family="Arial, sans-serif" font-size="12" fill="#6c757d" text-anchor="end">$0</text>
  <text x="80" y="325" font-family="Arial, sans-serif" font-size="12" fill="#6c757d" text-anchor="end">$1,000</text>
  <text x="80" y="250" font-family="Arial, sans-serif" font-size="12" fill="#6c757d" text-anchor="end">$2,000</text>
  <text x="80" y="175" font-family="Arial, sans-serif" font-size="12" fill="#6c757d" text-anchor="end">$3,000</text>
  <text x="80" y="100" font-family="Arial, sans-serif" font-size="12" fill="#6c757d" text-anchor="end">$4,000</text>
  <text x="50" y="250" font-family="Arial, sans-serif" font-size="14" fill="#2a3142" text-anchor="middle" transform="rotate(-90, 50, 250)">Monthly Earnings</text>
  
  <!-- Grid lines -->
  <line x1="100" y1="325" x2="700" y2="325" stroke="#e9ecef" stroke-width="1" stroke-dasharray="5,5"/>
  <line x1="100" y1="250" x2="700" y2="250" stroke="#e9ecef" stroke-width="1" stroke-dasharray="5,5"/>
  <line x1="100" y1="175" x2="700" y2="175" stroke="#e9ecef" stroke-width="1" stroke-dasharray="5,5"/>
  <line x1="100" y1="100" x2="700" y2="100" stroke="#e9ecef" stroke-width="1" stroke-dasharray="5,5"/>
  
  <line x1="220" y1="100" x2="220" y2="400" stroke="#e9ecef" stroke-width="1" stroke-dasharray="5,5"/>
  <line x1="340" y1="100" x2="340" y2="400" stroke="#e9ecef" stroke-width="1" stroke-dasharray="5,5"/>
  <line x1="460" y1="100" x2="460" y2="400" stroke="#e9ecef" stroke-width="1" stroke-dasharray="5,5"/>
  <line x1="580" y1="100" x2="580" y2="400" stroke="#e9ecef" stroke-width="1" stroke-dasharray="5,5"/>
  
  <!-- Data lines -->
  <!-- Semrush ($200 per referral) -->
  <polyline points="100,400 220,320 340,240 460,160 580,80 700,0" fill="none" stroke="#4a6bff" stroke-width="3"/>
  
  <!-- Shopify ($150 per referral) -->
  <polyline points="100,400 220,340 340,280 460,220 580,160 700,100" fill="none" stroke="#ff6b4a" stroke-width="3"/>
  
  <!-- WP Engine ($200+ per referral) -->
  <polyline points="100,400 220,310 340,220 460,130 580,40 700,-50" fill="none" stroke="#6bff4a" stroke-width="3"/>
  
  <!-- Data points -->
  <!-- Semrush -->
  <circle cx="100" cy="400" r="5" fill="#4a6bff"/>
  <circle cx="220" cy="320" r="5" fill="#4a6bff"/>
  <circle cx="340" cy="240" r="5" fill="#4a6bff"/>
  <circle cx="460" cy="160" r="5" fill="#4a6bff"/>
  <circle cx="580" cy="80" r="5" fill="#4a6bff"/>
  
  <!-- Shopify -->
  <circle cx="100" cy="400" r="5" fill="#ff6b4a"/>
  <circle cx="220" cy="340" r="5" fill="#ff6b4a"/>
  <circle cx="340" cy="280" r="5" fill="#ff6b4a"/>
  <circle cx="460" cy="220" r="5" fill="#ff6b4a"/>
  <circle cx="580" cy="160" r="5" fill="#ff6b4a"/>
  
  <!-- WP Engine -->
  <circle cx="100" cy="400" r="5" fill="#6bff4a"/>
  <circle cx="220" cy="310" r="5" fill="#6bff4a"/>
  <circle cx="340" cy="220" r="5" fill="#6bff4a"/>
  <circle cx="460" cy="130" r="5" fill="#6bff4a"/>
  <circle cx="580" cy="40" r="5" fill="#6bff4a"/>
  
  <!-- Legend -->
  <rect x="550" y="120" width="200" height="100" fill="white" rx="5" ry="5" stroke="#e9ecef" stroke-width="1"/>
  
  <line x1="570" y1="145" x2="600" y2="145" stroke="#4a6bff" stroke-width="3"/>
  <circle cx="585" cy="145" r="5" fill="#4a6bff"/>
  <text x="610" y="150" font-family="Arial, sans-serif" font-size="14" fill="#2a3142">Semrush ($200)</text>
  
  <line x1="570" y1="175" x2="600" y2="175" stroke="#ff6b4a" stroke-width="3"/>
  <circle cx="585" cy="175" r="5" fill="#ff6b4a"/>
  <text x="610" y="180" font-family="Arial, sans-serif" font-size="14" fill="#2a3142">Shopify ($150)</text>
  
  <line x1="570" y1="205" x2="600" y2="205" stroke="#6bff4a" stroke-width="3"/>
  <circle cx="585" cy="205" r="5" fill="#6bff4a"/>
  <text x="610" y="210" font-family="Arial, sans-serif" font-size="14" fill="#2a3142">WP Engine ($200+)</text>
</svg>
